<svg version="1.1" id="Layer_1" xmlns="http://www.w3.org/2000/svg" xmlns:xlink="http://www.w3.org/1999/xlink" x="0px" y="0px"
	 width="100%" viewBox="0 0 924 270" enable-background="new 0 0 924 270" xml:space="preserve">
<path fill="#1E130F" opacity="1.000000" stroke="none" 
	d="
M924.000000,271.000000 
	C616.393860,271.000000 308.787659,271.000000 1.090747,271.000000 
	C1.090747,181.078278 1.090747,91.156433 1.090747,1.000000 
	C308.361328,1.000000 615.722717,1.000000 923.542725,1.468657 
	C924.000854,91.624878 924.000427,181.312439 924.000000,271.000000 
M648.500000,182.998550 
	C622.417847,182.998550 596.335754,182.998550 569.760132,182.998550 
	C569.760132,140.580872 569.760132,98.859894 569.760132,56.999874 
	C548.771423,56.999874 528.274536,57.310612 507.797150,56.814911 
	C501.463287,56.661583 498.611877,58.822536 495.946411,64.321602 
	C483.252197,90.510582 470.066620,116.461456 457.036377,142.487305 
	C456.506439,143.545731 455.780426,144.506027 454.887146,145.921967 
	C453.977173,144.159485 453.360962,142.997192 452.772217,141.821167 
	C439.218750,114.748810 425.689087,87.664467 412.058838,60.630848 
	C411.339722,59.204666 409.861542,57.297367 408.584869,57.172943 
	C404.187195,56.744350 399.722076,57.008091 395.001648,57.008091 
	C395.001648,80.212181 394.979187,102.846199 395.055206,125.479889 
	C395.059967,126.897186 395.634766,128.411728 396.282196,129.712891 
	C406.889191,151.029327 417.599976,172.294327 428.136932,193.645142 
	C429.446442,196.298569 431.014191,197.099045 433.881409,197.068604 
	C447.876984,196.919968 461.876709,196.881836 475.870789,197.089386 
	C479.219330,197.139053 480.783081,196.044464 482.251007,193.064529 
	C493.642761,169.939575 505.247040,146.919327 516.799988,123.873894 
	C517.484436,122.508560 518.293823,121.205833 519.045044,119.873978 
	C519.305054,119.990601 519.565063,120.107231 519.825073,120.223854 
	C519.825073,145.648468 519.825073,171.073074 519.825073,196.716400 
	C620.134216,196.716400 720.167725,196.716400 820.278381,196.716400 
	C820.278381,192.022125 820.278381,187.625473 820.278381,182.998550 
	C763.124390,182.998550 706.312195,182.998550 648.500000,182.998550 
M281.500000,197.001923 
	C317.615479,197.001923 353.730957,197.001923 389.984070,197.001923 
	C389.984070,150.162491 389.984070,103.780296 389.984070,57.291946 
	C373.311401,57.291946 356.913239,57.291946 339.971191,57.291946 
	C339.971191,99.289688 339.971191,140.998367 339.971191,183.239532 
	C249.724274,183.239532 160.022217,183.239532 70.393677,183.239532 
	C70.393677,188.049545 70.393677,192.318420 70.393677,197.001923 
	C140.605896,197.001923 210.552948,197.001923 281.500000,197.001923 
M201.492264,168.888428 
	C206.088196,168.888428 210.684113,168.888428 215.654663,168.888428 
	C215.654663,158.648300 215.654663,149.053131 215.654663,139.226868 
	C226.503937,139.226868 236.971954,138.922455 247.410339,139.347031 
	C253.185349,139.581924 254.674011,141.898697 254.698166,147.890945 
	C254.726028,154.806473 254.704651,161.722214 254.704651,168.626526 
	C266.193848,168.626526 276.941589,168.626526 287.613525,168.626526 
	C287.793274,168.063843 287.974060,167.760681 287.974854,167.457062 
	C287.997131,158.959946 287.782959,150.455032 288.083069,141.968231 
	C288.291656,136.069382 286.815125,131.162750 282.989380,128.302292 
	C284.784210,124.010193 287.328064,120.274139 287.788055,116.297066 
	C288.548523,109.722282 288.181976,102.982758 287.897156,96.329483 
	C287.462372,86.172028 281.373169,79.156487 271.437836,77.121979 
	C268.521820,76.524857 265.502563,76.165703 262.529266,76.156906 
	C237.368607,76.082481 212.207626,76.114494 187.046753,76.114548 
	C185.466873,76.114548 183.887009,76.114548 182.376801,76.114548 
	C182.376801,84.318420 182.376801,91.747528 182.376801,99.652824 
	C189.103470,99.652824 195.566345,99.646179 202.029205,99.654160 
	C216.858368,99.672485 231.689911,99.548691 246.515656,99.785561 
	C253.577972,99.898392 256.822754,105.040451 254.162247,111.358025 
	C252.202469,116.011665 247.776855,115.654350 243.869995,115.676331 
	C225.208237,115.781303 206.545517,115.720825 187.883148,115.719223 
	C186.102310,115.719070 184.321472,115.719200 182.371429,115.719200 
	C182.371429,133.633804 182.371429,151.036179 182.371429,168.888428 
	C188.579224,168.888428 194.537170,168.888428 201.492264,168.888428 
M582.707397,109.491028 
	C582.707397,113.245758 582.707397,117.000488 582.707397,120.815994 
	C594.078735,120.815994 604.835083,120.815994 616.006714,120.815994 
	C616.006714,116.334328 615.946350,112.046501 616.022095,107.761086 
	C616.114868,102.514877 617.941895,100.064491 622.974060,99.927612 
	C633.619995,99.638023 644.283752,99.637550 654.930420,99.906387 
	C659.990967,100.034172 661.916565,102.533928 661.981506,107.628845 
	C662.037720,112.046272 661.993164,116.464981 661.993164,120.763611 
	C673.439209,120.763611 684.208557,120.763611 695.272156,120.763611 
	C695.272156,113.548843 695.371277,106.583473 695.251587,99.621864 
	C694.998230,84.889236 687.803223,76.699387 673.050415,76.329872 
	C650.413757,75.762878 627.742859,75.757973 605.105774,76.307899 
	C590.536438,76.661842 583.767273,84.095680 582.907104,98.511421 
	C582.708923,101.831810 582.767090,105.167511 582.707397,109.491028 
M650.345398,145.343246 
	C641.361450,145.257080 632.370300,145.358383 623.396240,145.014908 
	C617.950623,144.806503 616.110718,142.536606 616.021179,137.070404 
	C615.951172,132.797455 616.007141,128.522446 616.007141,124.281700 
	C604.617920,124.281700 593.723816,124.281700 582.708313,124.281700 
	C582.708313,131.060532 582.691284,137.548431 582.721069,144.036133 
	C582.727966,145.530182 582.886658,147.024109 582.990417,148.517059 
	C583.739624,159.305115 589.646423,166.027863 600.310303,167.931671 
	C603.568665,168.513397 606.917297,168.831085 610.226562,168.846268 
	C628.704041,168.931046 647.182373,168.935440 665.659790,168.845856 
	C669.635376,168.826584 673.662231,168.622910 677.572693,167.958511 
	C688.362122,166.125290 694.394714,159.606277 694.971008,148.676697 
	C695.397156,140.595322 695.054810,132.473404 695.054810,124.248795 
	C684.007446,124.248795 673.128784,124.248795 661.993225,124.248795 
	C661.993225,127.655357 661.993286,130.792496 661.993164,133.929642 
	C661.992920,143.585907 661.065796,144.575226 650.345398,145.343246 
M294.117889,167.130981 
	C294.586761,167.696014 295.051331,168.750031 295.525177,168.754227 
	C306.111511,168.847961 316.698853,168.826065 327.361481,168.826065 
	C327.361481,137.654831 327.361481,107.082619 327.361481,76.446472 
	C316.169769,76.446472 305.282928,76.446472 294.108429,76.446472 
	C294.108429,106.587585 294.108429,136.387848 294.117889,167.130981 
M734.896057,100.500046 
	C734.896057,92.422012 734.896057,84.343979 734.896057,76.378807 
	C723.331970,76.378807 712.569092,76.378807 701.755249,76.378807 
	C701.755249,107.345757 701.755249,138.025177 701.755249,168.620239 
	C712.945312,168.620239 723.709839,168.620239 734.896057,168.620239 
	C734.896057,146.064865 734.896057,123.782455 734.896057,100.500046 
M799.517456,168.893890 
	C806.439026,168.893890 813.360596,168.893890 820.374878,168.893890 
	C820.374878,137.671326 820.374878,107.100822 820.374878,76.426491 
	C809.192627,76.426491 798.306702,76.426491 787.377075,76.426491 
	C787.377075,107.332642 787.377075,137.901123 787.377075,168.893890 
	C791.270142,168.893890 794.898560,168.893890 799.517456,168.893890 
M126.500038,76.112846 
	C107.768356,76.112846 89.036674,76.112846 70.458466,76.112846 
	C70.458466,85.462593 70.458466,94.039368 70.458466,102.688110 
	C105.715958,102.688110 140.618225,102.688110 175.694809,102.688110 
	C175.694809,93.773933 175.694809,85.071556 175.694809,76.112846 
	C159.420654,76.112846 143.460358,76.112846 126.500038,76.112846 
M753.165100,140.333160 
	C757.413879,148.801697 761.605835,157.299713 765.972046,165.707275 
	C766.633240,166.980453 768.047913,168.656769 769.210938,168.736694 
	C774.129517,169.074768 779.084595,168.879959 784.278564,168.879959 
	C784.278564,157.976440 784.314514,147.666412 784.232300,137.357330 
	C784.222229,136.092880 783.772583,134.737778 783.201355,133.586014 
	C774.116394,115.267517 764.996765,96.966095 755.803894,78.701622 
	C755.283630,77.667984 754.095581,76.300179 753.163025,76.255966 
	C748.088928,76.015450 742.997375,76.141655 738.333069,76.141655 
	C736.216187,95.802269 736.802673,114.306267 748.343933,130.770172 
	C750.231995,133.463516 751.379333,136.676056 753.165100,140.333160 
M139.890411,115.550026 
	C139.890411,112.414703 139.890411,109.279388 139.890411,105.944397 
	C128.627274,105.944397 117.706718,105.944397 106.760307,105.944397 
	C106.760307,127.028221 106.760307,147.861053 106.760307,168.623291 
	C117.949280,168.623291 128.708755,168.623291 139.890106,168.623291 
	C139.890106,151.083450 139.890106,133.810028 139.890411,115.550026 
z"/>
<path fill="#66666A" opacity="1.000000" stroke="none" 
	d="
M924.500000,271.000000 
	C924.000427,181.312439 924.000854,91.624878 924.000610,1.468657 
	C924.333313,2.499999 924.957581,3.999846 924.958374,5.500021 
	C925.004944,94.000000 925.000000,182.500000 924.500000,271.000000 
z"/>
<path fill="#FFEE01" opacity="1.000000" stroke="none" 
	d="
M649.000000,182.998550 
	C706.312195,182.998550 763.124390,182.998550 820.278381,182.998550 
	C820.278381,187.625473 820.278381,192.022125 820.278381,196.716400 
	C720.167725,196.716400 620.134216,196.716400 519.825073,196.716400 
	C519.825073,171.073074 519.825073,145.648468 519.825073,120.223854 
	C519.565063,120.107231 519.305054,119.990601 519.045044,119.873978 
	C518.293823,121.205833 517.484436,122.508560 516.799988,123.873894 
	C505.247040,146.919327 493.642761,169.939575 482.251007,193.064529 
	C480.783081,196.044464 479.219330,197.139053 475.870789,197.089386 
	C461.876709,196.881836 447.876984,196.919968 433.881409,197.068604 
	C431.014191,197.099045 429.446442,196.298569 428.136932,193.645142 
	C417.599976,172.294327 406.889191,151.029327 396.282196,129.712891 
	C395.634766,128.411728 395.059967,126.897186 395.055206,125.479889 
	C394.979187,102.846199 395.001648,80.212181 395.001648,57.008091 
	C399.722076,57.008091 404.187195,56.744350 408.584869,57.172943 
	C409.861542,57.297367 411.339722,59.204666 412.058838,60.630848 
	C425.689087,87.664467 439.218750,114.748810 452.772217,141.821167 
	C453.360962,142.997192 453.977173,144.159485 454.887146,145.921967 
	C455.780426,144.506027 456.506439,143.545731 457.036377,142.487305 
	C470.066620,116.461456 483.252197,90.510582 495.946411,64.321602 
	C498.611877,58.822536 501.463287,56.661583 507.797150,56.814911 
	C528.274536,57.310612 548.771423,56.999874 569.760132,56.999874 
	C569.760132,98.859894 569.760132,140.580872 569.760132,182.998550 
	C596.335754,182.998550 622.417847,182.998550 649.000000,182.998550 
z"/>
<path fill="#FEED01" opacity="1.000000" stroke="none" 
	d="
M281.000000,197.001923 
	C210.552948,197.001923 140.605896,197.001923 70.393677,197.001923 
	C70.393677,192.318420 70.393677,188.049545 70.393677,183.239532 
	C160.022217,183.239532 249.724274,183.239532 339.971191,183.239532 
	C339.971191,140.998367 339.971191,99.289688 339.971191,57.291946 
	C356.913239,57.291946 373.311401,57.291946 389.984070,57.291946 
	C389.984070,103.780296 389.984070,150.162491 389.984070,197.001923 
	C353.730957,197.001923 317.615479,197.001923 281.000000,197.001923 
z"/>
<path fill="#FBFBFB" opacity="1.000000" stroke="none" 
	d="
M200.993683,168.888428 
	C194.537170,168.888428 188.579224,168.888428 182.371429,168.888428 
	C182.371429,151.036179 182.371429,133.633804 182.371429,115.719200 
	C184.321472,115.719200 186.102310,115.719070 187.883148,115.719223 
	C206.545517,115.720825 225.208237,115.781303 243.869995,115.676331 
	C247.776855,115.654350 252.202469,116.011665 254.162247,111.358025 
	C256.822754,105.040451 253.577972,99.898392 246.515656,99.785561 
	C231.689911,99.548691 216.858368,99.672485 202.029205,99.654160 
	C195.566345,99.646179 189.103470,99.652824 182.376801,99.652824 
	C182.376801,91.747528 182.376801,84.318420 182.376801,76.114548 
	C183.887009,76.114548 185.466873,76.114548 187.046753,76.114548 
	C212.207626,76.114494 237.368607,76.082481 262.529266,76.156906 
	C265.502563,76.165703 268.521820,76.524857 271.437836,77.121979 
	C281.373169,79.156487 287.462372,86.172028 287.897156,96.329483 
	C288.181976,102.982758 288.548523,109.722282 287.788055,116.297066 
	C287.328064,120.274139 284.784210,124.010193 282.989380,128.302292 
	C286.815125,131.162750 288.291656,136.069382 288.083069,141.968231 
	C287.782959,150.455032 287.997131,158.959946 287.974854,167.457062 
	C287.974060,167.760681 287.793274,168.063843 287.613525,168.626526 
	C276.941589,168.626526 266.193848,168.626526 254.704651,168.626526 
	C254.704651,161.722214 254.726028,154.806473 254.698166,147.890945 
	C254.674011,141.898697 253.185349,139.581924 247.410339,139.347031 
	C236.971954,138.922455 226.503937,139.226868 215.654663,139.226868 
	C215.654663,149.053131 215.654663,158.648300 215.654663,168.888428 
	C210.684113,168.888428 206.088196,168.888428 200.993683,168.888428 
z"/>
<path fill="#FCFCFC" opacity="1.000000" stroke="none" 
	d="
M582.707397,108.993591 
	C582.767090,105.167511 582.708923,101.831810 582.907104,98.511421 
	C583.767273,84.095680 590.536438,76.661842 605.105774,76.307899 
	C627.742859,75.757973 650.413757,75.762878 673.050415,76.329872 
	C687.803223,76.699387 694.998230,84.889236 695.251587,99.621864 
	C695.371277,106.583473 695.272156,113.548843 695.272156,120.763611 
	C684.208557,120.763611 673.439209,120.763611 661.993164,120.763611 
	C661.993164,116.464981 662.037720,112.046272 661.981506,107.628845 
	C661.916565,102.533928 659.990967,100.034172 654.930420,99.906387 
	C644.283752,99.637550 633.619995,99.638023 622.974060,99.927612 
	C617.941895,100.064491 616.114868,102.514877 616.022095,107.761086 
	C615.946350,112.046501 616.006714,116.334328 616.006714,120.815994 
	C604.835083,120.815994 594.078735,120.815994 582.707397,120.815994 
	C582.707397,117.000488 582.707397,113.245758 582.707397,108.993591 
z"/>
<path fill="#FCFCFC" opacity="1.000000" stroke="none" 
	d="
M650.819092,145.345520 
	C661.065796,144.575226 661.992920,143.585907 661.993164,133.929642 
	C661.993286,130.792496 661.993225,127.655357 661.993225,124.248795 
	C673.128784,124.248795 684.007446,124.248795 695.054810,124.248795 
	C695.054810,132.473404 695.397156,140.595322 694.971008,148.676697 
	C694.394714,159.606277 688.362122,166.125290 677.572693,167.958511 
	C673.662231,168.622910 669.635376,168.826584 665.659790,168.845856 
	C647.182373,168.935440 628.704041,168.931046 610.226562,168.846268 
	C606.917297,168.831085 603.568665,168.513397 600.310303,167.931671 
	C589.646423,166.027863 583.739624,159.305115 582.990417,148.517059 
	C582.886658,147.024109 582.727966,145.530182 582.721069,144.036133 
	C582.691284,137.548431 582.708313,131.060532 582.708313,124.281700 
	C593.723816,124.281700 604.617920,124.281700 616.007141,124.281700 
	C616.007141,128.522446 615.951172,132.797455 616.021179,137.070404 
	C616.110718,142.536606 617.950623,144.806503 623.396240,145.014908 
	C632.370300,145.358383 641.361450,145.257080 650.819092,145.345520 
z"/>
<path fill="#F9F9F9" opacity="1.000000" stroke="none" 
	d="
M294.113159,166.659546 
	C294.108429,136.387848 294.108429,106.587585 294.108429,76.446472 
	C305.282928,76.446472 316.169769,76.446472 327.361481,76.446472 
	C327.361481,107.082619 327.361481,137.654831 327.361481,168.826065 
	C316.698853,168.826065 306.111511,168.847961 295.525177,168.754227 
	C295.051331,168.750031 294.586761,167.696014 294.113159,166.659546 
z"/>
<path fill="#F9F9F9" opacity="1.000000" stroke="none" 
	d="
M734.896057,101.000046 
	C734.896057,123.782455 734.896057,146.064865 734.896057,168.620239 
	C723.709839,168.620239 712.945312,168.620239 701.755249,168.620239 
	C701.755249,138.025177 701.755249,107.345757 701.755249,76.378807 
	C712.569092,76.378807 723.331970,76.378807 734.896057,76.378807 
	C734.896057,84.343979 734.896057,92.422012 734.896057,101.000046 
z"/>
<path fill="#F9F9F9" opacity="1.000000" stroke="none" 
	d="
M799.022217,168.893890 
	C794.898560,168.893890 791.270142,168.893890 787.377075,168.893890 
	C787.377075,137.901123 787.377075,107.332642 787.377075,76.426491 
	C798.306702,76.426491 809.192627,76.426491 820.374878,76.426491 
	C820.374878,107.100822 820.374878,137.671326 820.374878,168.893890 
	C813.360596,168.893890 806.439026,168.893890 799.022217,168.893890 
z"/>
<path fill="#FAFAFB" opacity="1.000000" stroke="none" 
	d="
M127.000046,76.112846 
	C143.460358,76.112846 159.420654,76.112846 175.694809,76.112846 
	C175.694809,85.071556 175.694809,93.773933 175.694809,102.688110 
	C140.618225,102.688110 105.715958,102.688110 70.458466,102.688110 
	C70.458466,94.039368 70.458466,85.462593 70.458466,76.112846 
	C89.036674,76.112846 107.768356,76.112846 127.000046,76.112846 
z"/>
<path fill="#FCFCFC" opacity="1.000000" stroke="none" 
	d="
M753.017090,139.990891 
	C751.379333,136.676056 750.231995,133.463516 748.343933,130.770172 
	C736.802673,114.306267 736.216187,95.802269 738.333069,76.141655 
	C742.997375,76.141655 748.088928,76.015450 753.163025,76.255966 
	C754.095581,76.300179 755.283630,77.667984 755.803894,78.701622 
	C764.996765,96.966095 774.116394,115.267517 783.201355,133.586014 
	C783.772583,134.737778 784.222229,136.092880 784.232300,137.357330 
	C784.314514,147.666412 784.278564,157.976440 784.278564,168.879959 
	C779.084595,168.879959 774.129517,169.074768 769.210938,168.736694 
	C768.047913,168.656769 766.633240,166.980453 765.972046,165.707275 
	C761.605835,157.299713 757.413879,148.801697 753.017090,139.990891 
z"/>
<path fill="#F9F9F9" opacity="1.000000" stroke="none" 
	d="
M139.890259,116.043320 
	C139.890106,133.810028 139.890106,151.083450 139.890106,168.623291 
	C128.708755,168.623291 117.949280,168.623291 106.760307,168.623291 
	C106.760307,147.861053 106.760307,127.028221 106.760307,105.944397 
	C117.706718,105.944397 128.627274,105.944397 139.890411,105.944397 
	C139.890411,109.279388 139.890411,112.414703 139.890259,116.043320 
z"/>
</svg>